<svg width="222" height="109" viewBox="0 0 222 109" fill="none" xmlns="http://www.w3.org/2000/svg">
<path d="M35.9844 108V16.416H0.560375V7.19999H82.0644V16.416H46.6404V108H35.9844ZM94.814 36.288L101.15 9.79199L102.302 15.84C100.094 15.84 98.222 15.168 96.686 13.824C95.246 12.384 94.526 10.512 94.526 8.208C94.526 5.904 95.246 4.032 96.686 2.59199C98.222 1.15199 100.046 0.431994 102.158 0.431994C104.366 0.431994 106.142 1.2 107.486 2.736C108.926 4.176 109.646 6 109.646 8.208C109.646 8.97599 109.598 9.74399 109.502 10.512C109.406 11.28 109.214 12.144 108.926 13.104C108.734 13.968 108.398 15.072 107.918 16.416L101.726 36.288H94.814ZM121.01 108V103.104L148.946 75.744C151.506 73.248 153.426 71.072 154.706 69.216C155.986 67.296 156.85 65.504 157.298 63.84C157.746 62.176 157.97 60.608 157.97 59.136C157.97 55.232 156.626 52.16 153.938 49.92C151.314 47.68 147.41 46.56 142.226 46.56C138.258 46.56 134.738 47.168 131.666 48.384C128.658 49.6 126.066 51.488 123.89 54.048L118.994 49.824C121.618 46.752 124.978 44.384 129.074 42.72C133.17 41.056 137.746 40.224 142.802 40.224C147.346 40.224 151.282 40.96 154.61 42.432C157.938 43.84 160.498 45.92 162.29 48.672C164.146 51.424 165.074 54.656 165.074 58.368C165.074 60.544 164.754 62.688 164.114 64.8C163.538 66.912 162.45 69.152 160.85 71.52C159.314 73.824 157.042 76.448 154.034 79.392L128.402 104.544L126.482 101.856H168.146V108H121.01ZM196.884 108.576C192.02 108.576 187.412 107.808 183.06 106.272C178.772 104.672 175.316 102.56 172.692 99.936L176.052 94.464C178.228 96.704 181.14 98.56 184.788 100.032C188.5 101.504 192.532 102.24 196.884 102.24C202.452 102.24 206.708 101.024 209.652 98.592C212.66 96.16 214.164 92.896 214.164 88.8C214.164 84.704 212.692 81.44 209.748 79.008C206.868 76.576 202.292 75.36 196.02 75.36H191.22V70.272L211.956 44.256L212.916 46.944H175.476V40.8H218.676V45.696L197.94 71.712L194.58 69.504H197.172C205.236 69.504 211.252 71.296 215.22 74.88C219.252 78.464 221.268 83.072 221.268 88.704C221.268 92.48 220.372 95.872 218.58 98.88C216.788 101.888 214.068 104.256 210.42 105.984C206.836 107.712 202.324 108.576 196.884 108.576Z" fill="url(#paint0_linear_304_2)"/>
<defs>
<linearGradient id="paint0_linear_304_2" x1="-12" y1="57.1468" x2="219.323" y2="-36.6739" gradientUnits="userSpaceOnUse">
<stop stop-color="white"/>
<stop offset="0.9999" stop-color="#D5D5D5"/>
<stop offset="1" stop-color="white" stop-opacity="0"/>
<stop offset="1" stop-color="white"/>
</linearGradient>
</defs>
</svg>
