<svg width="167" height="169" viewBox="0 0 167 169" fill="none" xmlns="http://www.w3.org/2000/svg">
<path d="M49.2412 84.5774L54.9423 98.5667C55.7771 100.615 57.3777 102.258 59.4041 103.145L73.4461 109.294C76.2408 110.518 76.2408 114.482 73.4461 115.706L59.4041 121.855C57.3777 122.742 55.7771 124.385 54.9423 126.433L49.2412 140.423C48.0571 143.328 43.9429 143.328 42.7588 140.423L37.0577 126.433C36.2229 124.385 34.6223 122.742 32.5959 121.855L18.5539 115.706C15.7592 114.482 15.7592 110.518 18.5539 109.294L32.5959 103.145C34.6223 102.258 36.2229 100.615 37.0577 98.5667L42.7588 84.5774C43.9429 81.672 48.0571 81.672 49.2412 84.5774Z" fill="#A5A1A1" fill-opacity="0.19" stroke="#E3E3E3" stroke-width="5"/>
<path d="M116.75 28.8551L126.164 52.3893C126.985 54.4421 128.573 56.0942 130.593 56.995L153.699 67.3037C156.465 68.5374 156.465 72.4626 153.699 73.6963L130.593 84.0051C128.573 84.9058 126.985 86.5579 126.164 88.6107L116.75 112.145C115.576 115.078 111.424 115.078 110.25 112.145L100.836 88.6107C100.015 86.5579 98.4265 84.9058 96.4074 84.0051L73.3006 73.6963C70.5353 72.4626 70.5353 68.5374 73.3006 67.3037L96.4074 56.995C98.4265 56.0942 100.015 54.4421 100.836 52.3893L110.25 28.8551C111.424 25.9217 115.576 25.9216 116.75 28.8551Z" fill="#A5A1A1" fill-opacity="0.19" stroke="#E3E3E3" stroke-width="5"/>
<path d="M49.7267 20.0619L52.1632 26.3101C52.9183 28.2466 54.3974 29.8131 56.2874 30.6781L63.2463 33.8628C66.3602 35.2879 66.3602 39.7121 63.2463 41.1372L56.2874 44.3219C54.3974 45.1869 52.9183 46.7534 52.1632 48.6899L49.7267 54.9381C48.4025 58.3338 43.5975 58.3338 42.2733 54.9381L39.8368 48.6899C39.0817 46.7534 37.6026 45.1869 35.7126 44.3219L28.7537 41.1372C25.6398 39.7121 25.6398 35.2879 28.7537 33.8628L35.7126 30.6781C37.6026 29.8131 39.0817 28.2466 39.8368 26.3101L42.2733 20.0619C43.5975 16.6662 48.4025 16.6662 49.7267 20.0619Z" fill="#A5A1A1" fill-opacity="0.19" stroke="#E3E3E3" stroke-width="4"/>
</svg>
